{"title":"The Commitments (1996) The Best Of [Image]","uid":9045060,"size":407530518,"categoryP":"audio","categoryS":"flac","magnet":"?xt=urn:btih:d9cc5ac997d5f1bec8f6d9ed906c55f7baabfcdd&amp;dn=The+Commitments+%281996%29+The+Best+Of+%5BImage%5D&amp;tr=udp%3A%2F%2Ftracker.openbittorrent.com%3A80&amp;tr=udp%3A%2F%2Fopen.demonii.com%3A1337&amp;tr=udp%3A%2F%2Ftracker.coppersurfer.tk%3A6969&amp;tr=udp%3A%2F%2Fexodus.desync.com%3A6969","seeders":2,"leechers":0,"uploader":"alvaro_w","files":12,"time":1381723824,"description":"===================================================================================\n************************** PLEASE SEED AFTER DOWNLOADING **************************\n===================================================================================\n\n\nTRACKS\n\n\n01. Mustang Sally\n02. Chain Of Fools\n03. Treat Her Right\n04. Saem Ol Me\n05. The Dark End Of The Street\n06. Do Right Woman Do Right Man\n07. Take Me To The River\n08. Mr Pitiful\n09. Try A Little Tenderness\n10. I Never Loved A Man\n11. Hard To Handle\n12. Some Kind Of Wonderful(She's)\n13. Fa-Fa-Fa-Fa(Sad Song)\n14. Bring It On Home To Me\n15. I Can't Stand The Rain\n16. Ain't Nothing You Can Do\n17. Half A Man\n18. In The Midnight Hour\n___________________________________________________________________________________\n\nEAC Rip| Image+Cue+Log| Complete Scans (Made in Brazil)\n___________________________________________________________________________________\n\n\nExact Audio Copy V1.0 beta 3 from 29. August 2011\n\nEAC extraction logfile from 21. April 2013, 19:22\n\nThe Commitments / The Best Of\n\nUsed drive  : PLDS    DVD+-RW DS-8A8SH   Adapter: 0  ID: 1\n\nRead mode               : Secure\nUtilize accurate stream : Yes\nDefeat audio cache      : Yes\nMake use of C2 pointers : No\n\nRead offset correction                      : 6\nOverread into Lead-In and Lead-Out          : No\nFill up missing offset samples with silence : Yes\nDelete leading and trailing silent blocks   : No\nNull samples used in CRC calculations       : Yes\nUsed interface                              : Native Win32 interface for Win NT &amp; 2000\n\nUsed output format              : User Defined Encoder\nSelected bitrate                : 1024 kBit/s\nQuality                         : High\nAdd ID3 tag                     : No\nCommand line compressor         : C:Program Files (x86)Exact Audio CopyFlacflac.exe\nAdditional command line options : -8 -V -T &quot;ARTIST=%artist%&quot; -T &quot;TITLE=%title%&quot; -T &quot;ALBUM=%albumtitle%&quot; -T &quot;DATE=%year%&quot; -T &quot;TRACKNUMBER=%tracknr%&quot; -T &quot;TOTALTRACKS=%numtracks%&quot; -T &quot;GENRE=%genre%&quot; -T &quot;ALBUMARTIST=%albumartist%&quot; -T &quot;COMPOSER=%composer%&quot; -T &quot;ALBUMCOMPOSER=%albumcomposer%&quot; -T &quot;ALBUM ARTIST=%albumartist%&quot; -T &quot;COMMENT=EAC Secure Mode, Test &amp; Copy, AccurateRip, FLAC -8&quot; %source%\n\n\nTOC of the extracted CD\n\n     Track |   Start  |  Length  | Start sector | End sector \n    ---------------------------------------------------------\n        1  |  0:00.00 |  4:02.32 |         0    |    18181   \n        2  |  4:02.32 |  2:59.45 |     18182    |    31651   \n        3  |  7:02.02 |  3:37.68 |     31652    |    47994   \n        4  | 10:39.70 |  5:06.37 |     47995    |    70981   \n        5  | 15:46.32 |  2:37.68 |     70982    |    82824   \n        6  | 18:24.25 |  3:17.17 |     82825    |    97616   \n        7  | 21:41.42 |  3:39.58 |     97617    |   114099   \n        8  | 25:21.25 |  2:10.25 |    114100    |   123874   \n        9  | 27:31.50 |  4:33.67 |    123875    |   144416   \n       10  | 32:05.42 |  3:11.70 |    144417    |   158811   \n       11  | 35:17.37 |  2:24.55 |    158812    |   169666   \n       12  | 37:42.17 |  3:19.65 |    169667    |   184656   \n       13  | 41:02.07 |  2:53.43 |    184657    |   197674   \n       14  | 43:55.50 |  3:41.12 |    197675    |   214261   \n       15  | 47:36.62 |  3:11.68 |    214262    |   228654   \n       16  | 50:48.55 |  3:51.60 |    228655    |   246039   \n       17  | 54:40.40 |  4:17.02 |    246040    |   265316   \n       18  | 58:57.42 |  2:22.23 |    265317    |   275989   \n\n\nRange status and errors\n\nSelected range\n\n     Filename M:JuvenalEAC RipsThe Commitments - The Best Of.wav\n\n     Peak level 97.7 %\n     Extraction speed 4.7 X\n     Range quality 99.9 %\n     Copy CRC 3B1F0003\n     Copy OK\n\nNo errors occurred\n\n \nAccurateRip summary\n \nTrack  1  accurately ripped (confidence 1)  [AA77A818]  (AR v1)\nTrack  2  accurately ripped (confidence 1)  [AE3965B5]  (AR v1)\nTrack  3  accurately ripped (confidence 1)  [3B715A78]  (AR v1)\nTrack  4  accurately ripped (confidence 1)  [FA337981]  (AR v1)\nTrack  5  accurately ripped (confidence 1)  [1344CFAD]  (AR v1)\nTrack  6  accurately ripped (confidence 1)  [845A827C]  (AR v1)\nTrack  7  accurately ripped (confidence 1)  [E8FF6F19]  (AR v1)\nTrack  8  cannot be verified as accurate (confidence 1)  [21749A01], AccurateRip returned [0E5A3B5D]  (AR v2)\nTrack  9  accurately ripped (confidence 1)  [71951C99]  (AR v1)\nTrack 10  accurately ripped (confidence 1)  [5E49581A]  (AR v1)\nTrack 11  accurately ripped (confidence 1)  [11B2CCDB]  (AR v1)\nTrack 12  accurately ripped (confidence 1)  [5663EE43]  (AR v1)\nTrack 13  accurately ripped (confidence 1)  [56822519]  (AR v1)\nTrack 14  accurately ripped (confidence 1)  [A1B13701]  (AR v1)\nTrack 15  cannot be verified as accurate (confidence 1)  [31B271E3], AccurateRip returned [1193753E]  (AR v2)\nTrack 16  cannot be verified as accurate (confidence 1)  [17FDC77F], AccurateRip returned [B96A052E]  (AR v2)\nTrack 17  accurately ripped (confidence 1)  [D3A8824C]  (AR v1)\nTrack 18  accurately ripped (confidence 1)  [BBAFB2BC]  (AR v1)\n \n15 track(s) accurately ripped\n 3 track(s) could not be verified as accurate\n\nSome tracks could not be verified as accurate\n\nEnd of status report\n\n==== Log checksum AA0BB7010CF07EF9A93F518EA46EE9939EA353E175BF1B19D9993E8766D54D51 ====\n\n\n===================================================================================\n************************** PLEASE SEED AFTER DOWNLOADING **************************\n===================================================================================","torrent":{"xt":"urn:btih:d9cc5ac997d5f1bec8f6d9ed906c55f7baabfcdd","amp;dn":"The+Commitments+%281996%29+The+Best+Of+%5BImage%5D","amp;tr":["udp%3A%2F%2Ftracker.openbittorrent.com%3A80","udp%3A%2F%2Fopen.demonii.com%3A1337","udp%3A%2F%2Ftracker.coppersurfer.tk%3A6969","udp%3A%2F%2Fexodus.desync.com%3A6969"],"infoHash":"d9cc5ac997d5f1bec8f6d9ed906c55f7baabfcdd","infoHashBuffer":{"type":"Buffer","data":[217,204,90,201,151,213,241,190,200,246,217,237,144,108,85,247,186,171,252,221]},"announce":[],"urlList":[]}}